<?xml version="1.0" encoding="utf-8"?>
<!-- Generator: Adobe Illustrator 23.0.2, SVG Export Plug-In . SVG Version: 6.00 Build 0)  -->
<svg version="1.1" id="Layer_1" xmlns="http://www.w3.org/2000/svg" xmlns:xlink="http://www.w3.org/1999/xlink" x="0px" y="0px"
	 viewBox="0 0 1000 581.53" style="enable-background:new 0 0 1000 581.53;" xml:space="preserve">
<style type="text/css">
	.st0{fill:#D3A57D;}
	.st1{fill:#4F4F4F;}
</style>
<path class="st0" d="M252.03,215.41v73.39h-29.86v-39.88C229.2,240.71,239.83,228.83,252.03,215.41z M271.47,194.13v94.67h29.86
	V161.76C291.64,172.22,281.4,183.31,271.47,194.13z M352.12,90.77c41.75,34.12,84.53,67.04,121.93,106.14
	c11.62,12.18,19.69,26.35,22.55,43.21c0.36,2.12,0.24,5.54,3.4,5.25c2.89-0.28,2.84-3.58,2.74-5.81
	c-1.04-20.19-0.41-40.56-4.35-60.54c-2.07-10.45-8.19-18.85-15.22-26.68c-20.63-22.93-45.5-40.86-70.02-59.19
	c-8.32-6.23-16.6-12.51-24.64-19.08l-0.06-0.05c-5.87-4.78-11.61-9.72-17.14-14.89l-13.08-11.35l-3.76,4.44
	c-0.18,1.56-2.24,2.82-3.32,4.12c-4.25,5.07-8.55,10.09-12.91,15.05l-0.15,0.17c-14.48,16.51-55.54,60.22-86.06,91.56v-28.49
	c0-7.84-6.35-14.19-14.19-14.19h-1.49c-7.84,0-14.18,6.35-14.18,14.18v58.24c-3.78,3.48-7.86,6.7-12.15,9.47
	c-4.91,3.18-9.82,3.69-12.86-2.85c-0.74-1.57-1.73-3.06-3.71-2.45c-1.89,0.58-2.13,2.45-2.06,4.09c0.17,4.71,0.4,9.43,0.82,14.12
	c1.6,18.55,1.88,37.15,2.43,55.77c0.08,2.34,0.27,4.69,0.61,7.01c0.24,1.47,1.14,2.67,2.84,2.55c1.72-0.11,2.34-1.45,2.47-2.92
	c0.2-2.34,0.19-4.7,0.35-7.04c1.1-16.76,8.73-30.84,19.19-43.22c23.21-27.54,98.83-108.51,123.32-134.95
	C345.88,89.75,348.02,87.39,352.12,90.77z M777.39,283.38c-16.97-2.05-31.5-9.43-44.21-20.47c-40.83-35.5-75.74-76.7-111.79-116.77
	c-3.56-3.95-1.31-6.19,1.26-8.8c25.26-25.69,50.46-51.46,76.88-75.95c11.89-11.03,25.58-19.33,42.26-21.22
	c2.33-0.26,4.69-0.36,7.02-0.68c1.47-0.18,2.77-0.87,2.82-2.59c0.05-1.71-1.2-2.56-2.68-2.72c-2.33-0.24-4.7-0.33-7.04-0.28
	c-18.62,0.32-37.21,0.92-55.82,0.18c-4.7-0.18-9.42-0.18-14.13-0.14c-1.65,0.01-3.51,0.34-3.99,2.24c-0.52,2.02,1.01,2.94,2.62,3.61
	c6.67,2.72,6.39,7.66,3.44,12.71c-2.7,4.64-5.9,9.08-9.4,13.19c-24.24,28.58-50.08,55.68-77.65,81.09
	c-1.49,1.37-2.86,4.14-4.95,3.42c-2.63-0.92-1.54-4.11-1.76-6.27C574.45,82.14,521.7,30.99,459.48,28.94
	c-43.07-1.42-86.21-0.36-129.32-0.35c-2.7,0-6.15-0.5-6.12,3.86c0.01,4.08,3.36,4,6.09,4.27c30.21,2.97,60.44,6.15,90.7,8.71
	c24.13,2.03,47.72,5.81,69.25,17.7c41.06,22.7,65.06,56.76,63.83,104.44c-0.88,34.31-13.55,62.17-36.67,83.04
	c-1.96,1.77-4,3.49-6.12,5.16c-2.71,2.14-5.54,4.2-8.48,6.16c-1.9,1.28-3.85,2.51-5.85,3.71c-2.8,1.69-5.7,3.31-8.7,4.85
	c-14.26,7.35-28.94,11.44-43.92,12.3c-4.04,0.24-8.09,0.24-12.15,0h-81.35V113.74c-3.19-1.79-5.11,0.32-7.27,2.67
	c-5.41,5.83-13.32,14.34-22.59,24.32v142.05h-6.69c-1.26,0.11-2.55,0.16-3.84,0.2c-1.51,0.02-2.77,0.76-2.93,2.47
	c-0.18,2.19,1.31,2.83,3.1,3c1.4,0.12,2.82,0.17,4.24,0.17h6.13v0.2h29.86v-0.16c28.99,0.07,74.98,0.15,103.97-0.14
	c60.63-0.59,113.11-45.1,124.1-104.85c1.43-7.77,2.05-15.68,3.08-23.7c2.54,0.18,3.66,1.8,4.98,3.06
	c14.46,13.57,27.26,28.65,39.85,43.93c19.47,23.62,38.55,47.62,62.43,67.14c8.14,6.66,16.82,12.37,27.36,13.95
	c20.15,2.99,40.46,1.39,60.69,1.48c2.23,0,5.53-0.11,5.66-3.01C782.95,283.37,779.54,283.65,777.39,283.38z"/>
<g>
	<g>
		<g>
			<path class="st1" d="M52.38,418.57h54.39v-33.5c0-5.99-0.38-9.93-1.12-11.83c-0.58-1.44-1.79-2.68-3.63-3.71
				c-2.47-1.38-5.09-2.07-7.86-2.07h-4.15v-3.19h50.08v3.19h-4.15c-2.76,0-5.38,0.66-7.86,1.99c-1.84,0.92-3.1,2.32-3.76,4.19
				c-0.66,1.87-0.99,5.68-0.99,11.44v75.54c0,5.93,0.37,9.84,1.12,11.74c0.58,1.44,1.75,2.68,3.54,3.71
				c2.53,1.38,5.18,2.07,7.94,2.07h4.15v3.19H90.03v-3.19h4.15c4.78,0,8.26-1.41,10.45-4.23c1.44-1.84,2.16-6.27,2.16-13.29v-35.66
				H52.38v35.66c0,5.93,0.37,9.84,1.12,11.74c0.58,1.44,1.78,2.68,3.63,3.71c2.47,1.38,5.09,2.07,7.86,2.07h4.23v3.19H19.06v-3.19
				h4.14c4.84,0,8.35-1.41,10.53-4.23c1.38-1.84,2.07-6.27,2.07-13.29v-75.54c0-5.99-0.38-9.93-1.12-11.83
				c-0.58-1.44-1.76-2.68-3.54-3.71c-2.53-1.38-5.18-2.07-7.94-2.07h-4.14v-3.19h50.16v3.19h-4.23c-2.76,0-5.38,0.66-7.86,1.99
				c-1.78,0.92-3.02,2.32-3.71,4.19c-0.69,1.87-1.03,5.68-1.03,11.44V418.57z"/>
			<path class="st1" d="M185.99,399.92c11.97,0,21.58,4.55,28.84,13.64c6.16,7.77,9.24,16.69,9.24,26.76c0,7.08-1.7,14.24-5.09,21.5
				c-3.4,7.25-8.07,12.72-14.03,16.4c-5.96,3.68-12.59,5.53-19.9,5.53c-11.91,0-21.38-4.75-28.4-14.24
				c-5.93-8-8.89-16.98-8.89-26.94c0-7.25,1.8-14.46,5.4-21.63c3.6-7.17,8.33-12.46,14.2-15.89
				C173.21,401.63,179.43,399.92,185.99,399.92z M183.31,405.53c-3.05,0-6.12,0.91-9.2,2.72s-5.57,4.99-7.47,9.54
				c-1.9,4.55-2.85,10.39-2.85,17.53c0,11.51,2.29,21.44,6.87,29.79c4.58,8.35,10.6,12.52,18.09,12.52c5.58,0,10.19-2.3,13.81-6.91
				c3.62-4.6,5.44-12.52,5.44-23.74c0-14.04-3.02-25.09-9.06-33.15C194.85,408.29,189.64,405.53,183.31,405.53z"/>
			<path class="st1" d="M257.25,416.76c5.76-5.76,9.15-9.07,10.19-9.93c2.59-2.19,5.38-3.89,8.37-5.09
				c2.99-1.21,5.96-1.81,8.89-1.81c4.95,0,9.21,1.44,12.78,4.32c3.57,2.88,5.96,7.05,7.17,12.52c5.93-6.91,10.94-11.44,15.02-13.6
				c4.08-2.16,8.29-3.24,12.6-3.24c4.2,0,7.93,1.08,11.18,3.24c3.25,2.16,5.83,5.68,7.73,10.58c1.27,3.34,1.9,8.58,1.9,15.71v34.02
				c0,4.95,0.37,8.35,1.12,10.19c0.58,1.27,1.64,2.35,3.19,3.24c1.56,0.89,4.09,1.34,7.6,1.34v3.11h-39.02v-3.11h1.64
				c3.4,0,6.04-0.66,7.94-1.99c1.32-0.92,2.27-2.39,2.85-4.4c0.23-0.98,0.34-3.77,0.34-8.37v-34.02c0-6.45-0.78-10.99-2.33-13.64
				c-2.25-3.68-5.84-5.53-10.79-5.53c-3.05,0-6.12,0.76-9.2,2.29c-3.08,1.53-6.81,4.36-11.18,8.5l-0.17,0.95l0.17,3.71v37.73
				c0,5.41,0.3,8.78,0.91,10.1s1.74,2.43,3.41,3.32c1.67,0.89,4.52,1.34,8.55,1.34v3.11h-39.97v-3.11c4.37,0,7.38-0.52,9.02-1.55
				c1.64-1.04,2.78-2.59,3.41-4.66c0.29-0.98,0.43-3.83,0.43-8.55v-34.02c0-6.45-0.95-11.08-2.85-13.9
				c-2.53-3.68-6.07-5.53-10.62-5.53c-3.11,0-6.19,0.83-9.24,2.5c-4.78,2.53-8.46,5.38-11.05,8.55v42.39c0,5.18,0.36,8.55,1.08,10.1
				c0.72,1.55,1.78,2.72,3.19,3.5s4.28,1.16,8.59,1.16v3.11h-39.11v-3.11c3.63,0,6.16-0.39,7.6-1.16c1.44-0.78,2.53-2.01,3.28-3.71
				s1.12-4.99,1.12-9.89v-30.22c0-8.69-0.26-14.3-0.78-16.84c-0.4-1.9-1.04-3.21-1.9-3.93c-0.86-0.72-2.04-1.08-3.54-1.08
				c-1.61,0-3.54,0.43-5.78,1.3l-1.29-3.11l23.83-9.67h3.71V416.76z"/>
			<path class="st1" d="M382.65,432.03c-0.06,11.74,2.79,20.95,8.55,27.63c5.76,6.68,12.52,10.02,20.29,10.02
				c5.18,0,9.68-1.43,13.51-4.27c3.83-2.85,7.04-7.73,9.63-14.64l2.68,1.73c-1.21,7.89-4.72,15.07-10.53,21.54
				s-13.09,9.71-21.84,9.71c-9.5,0-17.63-3.7-24.39-11.09c-6.76-7.39-10.15-17.34-10.15-29.83c0-13.53,3.47-24.07,10.4-31.64
				c6.93-7.57,15.64-11.35,26.12-11.35c8.86,0,16.14,2.92,21.84,8.76c5.7,5.84,8.55,13.66,8.55,23.44H382.65z M382.65,427.03h36.61
				c-0.29-5.06-0.89-8.63-1.81-10.7c-1.44-3.22-3.58-5.76-6.43-7.6c-2.85-1.84-5.83-2.76-8.93-2.76c-4.78,0-9.05,1.86-12.82,5.57
				C385.49,415.24,383.29,420.41,382.65,427.03z"/>
			<path class="st1" d="M485.65,481.33v-3.19h4.4c4.95,0,8.46-1.58,10.53-4.75c1.27-1.9,1.9-6.16,1.9-12.78v-75.63
				c0-7.31-0.81-11.88-2.42-13.73c-2.24-2.53-5.58-3.8-10.01-3.8h-4.4v-3.19h47.66c17.5,0,30.81,1.99,39.93,5.96
				c9.12,3.97,16.46,10.59,22.01,19.86c5.55,9.27,8.33,19.97,8.33,32.12c0,16.29-4.95,29.9-14.85,40.84
				c-11.11,12.2-28.03,18.3-50.77,18.3H485.65z M519.06,472.87c7.31,1.61,13.44,2.42,18.39,2.42c13.35,0,24.43-4.69,33.24-14.07
				c8.81-9.38,13.21-22.1,13.21-38.16c0-16.17-4.4-28.92-13.21-38.25c-8.8-9.32-20.12-13.99-33.93-13.99
				c-5.18,0-11.08,0.84-17.7,2.5V472.87z"/>
			<path class="st1" d="M627.19,432.03c-0.06,11.74,2.79,20.95,8.55,27.63c5.76,6.68,12.52,10.02,20.29,10.02
				c5.18,0,9.68-1.43,13.51-4.27c3.83-2.85,7.04-7.73,9.63-14.64l2.68,1.73c-1.21,7.89-4.72,15.07-10.53,21.54
				s-13.09,9.71-21.84,9.71c-9.5,0-17.63-3.7-24.39-11.09c-6.76-7.39-10.15-17.34-10.15-29.83c0-13.53,3.47-24.07,10.4-31.64
				c6.93-7.57,15.64-11.35,26.12-11.35c8.86,0,16.14,2.92,21.84,8.76c5.7,5.84,8.55,13.66,8.55,23.44H627.19z M627.19,427.03h36.61
				c-0.29-5.06-0.89-8.63-1.81-10.7c-1.44-3.22-3.58-5.76-6.43-7.6c-2.85-1.84-5.83-2.76-8.93-2.76c-4.78,0-9.05,1.86-12.82,5.57
				C630.03,415.24,627.83,420.41,627.19,427.03z"/>
			<path class="st1" d="M757.6,451.29c-2.13,10.42-6.3,18.43-12.52,24.04c-6.22,5.61-13.09,8.42-20.63,8.42
				c-8.98,0-16.81-3.77-23.48-11.31c-6.68-7.54-10.02-17.73-10.02-30.56c0-12.43,3.7-22.53,11.09-30.3
				c7.4-7.77,16.27-11.65,26.63-11.65c7.77,0,14.16,2.06,19.17,6.17c5.01,4.12,7.51,8.39,7.51,12.82c0,2.19-0.71,3.96-2.12,5.31
				c-1.41,1.35-3.38,2.03-5.91,2.03c-3.4,0-5.96-1.09-7.68-3.28c-0.98-1.21-1.63-3.51-1.94-6.91c-0.32-3.39-1.48-5.98-3.5-7.77
				c-2.01-1.73-4.81-2.59-8.37-2.59c-5.76,0-10.39,2.13-13.9,6.39c-4.66,5.64-6.99,13.09-6.99,22.36c0,9.44,2.32,17.77,6.95,24.99
				c4.63,7.22,10.89,10.84,18.78,10.84c5.64,0,10.71-1.93,15.2-5.78c3.17-2.65,6.24-7.45,9.24-14.42L757.6,451.29z"/>
			<path class="st1" d="M805.65,399.92c11.97,0,21.58,4.55,28.84,13.64c6.16,7.77,9.24,16.69,9.24,26.76c0,7.08-1.7,14.24-5.09,21.5
				c-3.4,7.25-8.07,12.72-14.03,16.4c-5.96,3.68-12.59,5.53-19.9,5.53c-11.91,0-21.38-4.75-28.4-14.24
				c-5.93-8-8.89-16.98-8.89-26.94c0-7.25,1.8-14.46,5.4-21.63c3.6-7.17,8.33-12.46,14.2-15.89
				C792.87,401.63,799.09,399.92,805.65,399.92z M802.97,405.53c-3.05,0-6.12,0.91-9.2,2.72s-5.57,4.99-7.47,9.54
				c-1.9,4.55-2.85,10.39-2.85,17.53c0,11.51,2.29,21.44,6.87,29.79c4.58,8.35,10.6,12.52,18.09,12.52c5.58,0,10.19-2.3,13.81-6.91
				c3.62-4.6,5.44-12.52,5.44-23.74c0-14.04-3.02-25.09-9.07-33.15C814.51,408.29,809.3,405.53,802.97,405.53z"/>
			<path class="st1" d="M876.57,399.92v17.79c6.62-11.86,13.41-17.79,20.37-17.79c3.17,0,5.79,0.96,7.86,2.89
				c2.07,1.93,3.11,4.16,3.11,6.69c0,2.24-0.75,4.14-2.25,5.7c-1.5,1.56-3.28,2.33-5.35,2.33c-2.01,0-4.27-0.99-6.78-2.98
				c-2.5-1.99-4.36-2.98-5.57-2.98c-1.03,0-2.16,0.58-3.37,1.73c-2.59,2.36-5.27,6.25-8.03,11.65v37.9c0,4.38,0.55,7.68,1.64,9.93
				c0.75,1.55,2.07,2.85,3.97,3.88c1.9,1.03,4.63,1.55,8.2,1.55v3.11h-40.49v-3.11c4.03,0,7.02-0.63,8.98-1.9
				c1.44-0.92,2.45-2.39,3.02-4.4c0.29-0.98,0.43-3.77,0.43-8.37V432.9c0-9.21-0.19-14.69-0.56-16.44
				c-0.38-1.76-1.07-3.04-2.07-3.84c-1.01-0.81-2.26-1.21-3.75-1.21c-1.79,0-3.8,0.43-6.04,1.3l-0.86-3.11l23.91-9.67H876.57z"/>
			<path class="st1" d="M979.09,457.07l-0.95,24.26h-69.76v-3.11l52.49-69.93h-25.9c-5.58,0-9.24,0.36-10.96,1.08
				c-1.73,0.72-3.14,2.09-4.23,4.1c-1.55,2.88-2.45,6.45-2.68,10.71h-3.45l0.52-21.93h66.31v3.19l-53.01,70.11h28.84
				c6.04,0,10.15-0.5,12.3-1.51c2.16-1.01,3.9-2.78,5.22-5.31c0.92-1.84,1.7-5.73,2.33-11.65H979.09z"/>
		</g>
	</g>
	<g>
		<path class="st1" d="M54.26,552.92h-4.25c-0.48,0-0.88-0.12-1.19-0.36c-0.31-0.24-0.54-0.55-0.67-0.93l-3.29-8.63h-16.4
			l-3.29,8.63c-0.12,0.33-0.35,0.63-0.67,0.89c-0.33,0.27-0.72,0.4-1.19,0.4h-4.25l14.82-37.2h5.57L54.26,552.92z M43.36,539.06
			l-5.52-14.43c-0.4-0.98-0.79-2.23-1.19-3.73c-0.19,0.74-0.39,1.43-0.58,2.07c-0.2,0.64-0.39,1.21-0.58,1.71l-5.49,14.38H43.36z"/>
		<path class="st1" d="M97.47,514.68v38.23h-3.06c-0.71,0-1.15-0.34-1.32-1.01l-0.44-3.03c-1.12,1.33-2.4,2.4-3.82,3.2
			c-1.42,0.8-3.07,1.2-4.93,1.2c-1.5,0-2.86-0.29-4.08-0.88c-1.22-0.59-2.26-1.45-3.12-2.58c-0.86-1.13-1.53-2.53-1.99-4.21
			c-0.47-1.67-0.7-3.6-0.7-5.78c0-1.95,0.26-3.77,0.78-5.44c0.52-1.68,1.27-3.13,2.25-4.35c0.98-1.23,2.18-2.19,3.57-2.89
			c1.4-0.7,2.98-1.05,4.74-1.05c1.59,0,2.94,0.26,4.05,0.78c1.11,0.52,2.11,1.25,2.99,2.2v-14.4H97.47z M92.39,532.97
			c-0.83-1.09-1.72-1.85-2.68-2.28c-0.96-0.43-2.03-0.65-3.22-0.65c-2.31,0-4.11,0.83-5.37,2.5c-1.27,1.67-1.9,4.1-1.9,7.29
			c0,1.67,0.14,3.1,0.43,4.29c0.29,1.18,0.7,2.15,1.24,2.9c0.54,0.75,1.21,1.3,2.01,1.66c0.79,0.35,1.69,0.53,2.69,0.53
			c1.47,0,2.74-0.33,3.81-0.98c1.07-0.66,2.07-1.58,3-2.77V532.97z"/>
		<path class="st1" d="M127.44,531.65c0.85-1.73,1.87-3.08,3.06-4.07s2.62-1.48,4.3-1.48c0.57,0,1.11,0.07,1.62,0.2
			c0.51,0.13,0.95,0.32,1.33,0.58l-0.34,3.81c-0.12,0.47-0.41,0.7-0.86,0.7c-0.24,0-0.6-0.05-1.09-0.14c-0.48-0.09-1-0.14-1.55-0.14
			c-0.81,0-1.53,0.12-2.15,0.35s-1.18,0.58-1.67,1.04s-0.93,1.02-1.31,1.68c-0.38,0.66-0.73,1.42-1.06,2.27v16.48h-5.05V526.6h2.9
			c0.55,0,0.93,0.1,1.13,0.3c0.2,0.2,0.34,0.55,0.43,1.05L127.44,531.65z"/>
		<path class="st1" d="M170.03,526.18c1.93,0,3.68,0.31,5.25,0.94c1.56,0.63,2.89,1.54,3.99,2.72s1.94,2.61,2.53,4.27
			c0.59,1.67,0.88,3.53,0.88,5.61s-0.29,3.95-0.88,5.62c-0.59,1.68-1.43,3.1-2.53,4.27c-1.1,1.18-2.43,2.08-3.99,2.71
			c-1.56,0.63-3.31,0.94-5.25,0.94c-1.95,0-3.71-0.32-5.27-0.94c-1.56-0.63-2.9-1.53-4-2.71c-1.11-1.17-1.96-2.6-2.55-4.27
			c-0.6-1.67-0.89-3.55-0.89-5.62s0.3-3.94,0.89-5.61c0.6-1.67,1.45-3.09,2.55-4.27c1.1-1.18,2.44-2.09,4-2.72
			C166.32,526.5,168.07,526.18,170.03,526.18z M170.03,549.34c2.49,0,4.34-0.84,5.57-2.51c1.23-1.67,1.84-4.03,1.84-7.07
			c0-3.04-0.61-5.4-1.84-7.08c-1.23-1.68-3.08-2.52-5.57-2.52c-2.52,0-4.4,0.84-5.63,2.52c-1.24,1.68-1.85,4.05-1.85,7.08
			c0,3.04,0.62,5.4,1.85,7.07C165.63,548.5,167.5,549.34,170.03,549.34z"/>
		<path class="st1" d="M211.16,530.25c0.57-0.6,1.17-1.16,1.79-1.66c0.62-0.5,1.28-0.93,1.98-1.28c0.7-0.35,1.45-0.63,2.25-0.83
			c0.8-0.2,1.66-0.3,2.58-0.3c1.45,0,2.72,0.24,3.82,0.73c1.1,0.48,2.02,1.16,2.76,2.03c0.74,0.87,1.3,1.92,1.68,3.15
			c0.38,1.23,0.57,2.58,0.57,4.07v16.76h-5.08v-16.76c0-1.88-0.43-3.35-1.3-4.39c-0.86-1.05-2.19-1.57-3.96-1.57
			c-1.3,0-2.51,0.31-3.64,0.92c-1.13,0.61-2.18,1.45-3.15,2.5v19.3h-5.05V526.6h3.03c0.71,0,1.15,0.34,1.32,1.01L211.16,530.25z"/>
		<path class="st1" d="M275.14,549.16c-0.62,0.72-1.34,1.35-2.15,1.88c-0.81,0.53-1.67,0.95-2.59,1.28
			c-0.92,0.33-1.86,0.57-2.84,0.72c-0.98,0.16-1.94,0.23-2.89,0.23c-1.81,0-3.49-0.31-5.04-0.92c-1.55-0.61-2.88-1.51-4.01-2.69
			c-1.13-1.18-2.01-2.65-2.64-4.4s-0.94-3.77-0.94-6.05c0-1.83,0.28-3.54,0.85-5.12c0.57-1.58,1.39-2.96,2.45-4.13
			c1.06-1.17,2.36-2.1,3.9-2.77c1.54-0.67,3.26-1.01,5.18-1.01c1.61,0,3.09,0.26,4.44,0.79c1.35,0.53,2.52,1.29,3.51,2.29
			c0.98,1,1.76,2.24,2.32,3.7c0.56,1.47,0.84,3.14,0.84,5.03c0,0.78-0.09,1.3-0.26,1.57c-0.17,0.27-0.49,0.4-0.96,0.4h-17.25
			c0.05,1.57,0.28,2.94,0.67,4.11c0.4,1.17,0.95,2.14,1.65,2.91c0.7,0.78,1.53,1.36,2.5,1.74c0.97,0.38,2.05,0.57,3.24,0.57
			c1.12,0,2.09-0.13,2.91-0.39c0.82-0.26,1.53-0.54,2.12-0.84c0.6-0.3,1.1-0.58,1.5-0.84c0.4-0.26,0.76-0.39,1.07-0.39
			c0.41,0,0.73,0.16,0.96,0.47L275.14,549.16z M270.97,536.83c0-1-0.14-1.92-0.43-2.77c-0.28-0.85-0.7-1.58-1.26-2.2
			c-0.55-0.62-1.23-1.1-2.02-1.45c-0.79-0.34-1.71-0.52-2.75-0.52c-2.12,0-3.79,0.61-5.01,1.84c-1.22,1.23-1.99,2.93-2.32,5.1
			H270.97z"/>
		<path class="st1" d="M343.79,538.2v14.71h-5.49V538.2l-13.62-22.48h4.84c0.48,0,0.87,0.12,1.17,0.35s0.54,0.54,0.72,0.92
			l8.08,13.91c0.33,0.64,0.63,1.24,0.89,1.81c0.27,0.57,0.5,1.13,0.71,1.68c0.19-0.55,0.41-1.11,0.66-1.68
			c0.25-0.57,0.54-1.18,0.87-1.81l8.06-13.91c0.17-0.31,0.41-0.6,0.71-0.87c0.3-0.27,0.69-0.4,1.15-0.4h4.87L343.79,538.2z"/>
		<path class="st1" d="M384.53,526.18c1.93,0,3.68,0.31,5.25,0.94c1.56,0.63,2.89,1.54,3.99,2.72c1.1,1.18,1.94,2.61,2.53,4.27
			c0.59,1.67,0.88,3.53,0.88,5.61s-0.29,3.95-0.88,5.62c-0.59,1.68-1.43,3.1-2.53,4.27c-1.1,1.18-2.43,2.08-3.99,2.71
			c-1.56,0.63-3.31,0.94-5.25,0.94c-1.95,0-3.71-0.32-5.27-0.94c-1.56-0.63-2.9-1.53-4-2.71c-1.11-1.17-1.96-2.6-2.55-4.27
			c-0.6-1.67-0.89-3.55-0.89-5.62s0.3-3.94,0.89-5.61c0.6-1.67,1.45-3.09,2.55-4.27c1.1-1.18,2.44-2.09,4-2.72
			C380.82,526.5,382.58,526.18,384.53,526.18z M384.53,549.34c2.49,0,4.34-0.84,5.57-2.51c1.23-1.67,1.84-4.03,1.84-7.07
			c0-3.04-0.61-5.4-1.84-7.08c-1.23-1.68-3.08-2.52-5.57-2.52c-2.52,0-4.4,0.84-5.63,2.52c-1.24,1.68-1.85,4.05-1.85,7.08
			c0,3.04,0.62,5.4,1.85,7.07C380.13,548.5,382.01,549.34,384.53,549.34z"/>
		<path class="st1" d="M442.82,526.6v26.32h-3.03c-0.69,0-1.14-0.34-1.35-1.01l-0.36-2.64c-0.57,0.61-1.17,1.16-1.79,1.66
			c-0.62,0.5-1.29,0.93-1.99,1.28c-0.71,0.35-1.46,0.63-2.25,0.83c-0.79,0.2-1.65,0.3-2.56,0.3c-1.45,0-2.72-0.24-3.82-0.72
			c-1.1-0.48-2.02-1.16-2.76-2.03c-0.74-0.87-1.3-1.92-1.68-3.15c-0.38-1.23-0.57-2.58-0.57-4.07V526.6h5.08v16.76
			c0,1.88,0.43,3.35,1.29,4.39c0.86,1.04,2.19,1.57,3.96,1.57c1.29,0,2.5-0.31,3.63-0.92c1.12-0.61,2.18-1.45,3.16-2.52V526.6
			H442.82z"/>
		<path class="st1" d="M472.79,531.65c0.85-1.73,1.86-3.08,3.06-4.07c1.19-0.98,2.62-1.48,4.3-1.48c0.57,0,1.11,0.07,1.62,0.2
			c0.51,0.13,0.95,0.32,1.33,0.58l-0.34,3.81c-0.12,0.47-0.4,0.7-0.85,0.7c-0.24,0-0.61-0.05-1.09-0.14c-0.48-0.09-1-0.14-1.55-0.14
			c-0.81,0-1.53,0.12-2.15,0.35c-0.62,0.23-1.18,0.58-1.67,1.04c-0.49,0.46-0.93,1.02-1.31,1.68c-0.38,0.66-0.73,1.42-1.06,2.27
			v16.48h-5.05V526.6h2.9c0.55,0,0.93,0.1,1.13,0.3c0.2,0.2,0.34,0.55,0.43,1.05L472.79,531.65z"/>
		<path class="st1" d="M541.84,552.92h-5.54v-37.2h5.54V552.92z"/>
		<path class="st1" d="M572.46,530.25c0.57-0.6,1.17-1.16,1.79-1.66s1.28-0.93,1.98-1.28c0.7-0.35,1.45-0.63,2.25-0.83
			c0.8-0.2,1.66-0.3,2.58-0.3c1.45,0,2.72,0.24,3.82,0.73c1.1,0.48,2.02,1.16,2.76,2.03c0.74,0.87,1.3,1.92,1.68,3.15
			c0.38,1.23,0.57,2.58,0.57,4.07v16.76h-5.08v-16.76c0-1.88-0.43-3.35-1.3-4.39c-0.86-1.05-2.19-1.57-3.96-1.57
			c-1.3,0-2.51,0.31-3.64,0.92c-1.13,0.61-2.18,1.45-3.15,2.5v19.3h-5.05V526.6h3.03c0.71,0,1.15,0.34,1.32,1.01L572.46,530.25z"/>
		<path class="st1" d="M619.58,530.25c0.57-0.6,1.17-1.16,1.79-1.66s1.28-0.93,1.98-1.28c0.7-0.35,1.45-0.63,2.25-0.83
			c0.8-0.2,1.66-0.3,2.58-0.3c1.45,0,2.72,0.24,3.82,0.73c1.1,0.48,2.02,1.16,2.76,2.03c0.74,0.87,1.3,1.92,1.68,3.15
			c0.38,1.23,0.57,2.58,0.57,4.07v16.76h-5.08v-16.76c0-1.88-0.43-3.35-1.3-4.39c-0.86-1.05-2.19-1.57-3.96-1.57
			c-1.3,0-2.51,0.31-3.64,0.92c-1.13,0.61-2.18,1.45-3.15,2.5v19.3h-5.05V526.6h3.03c0.71,0,1.15,0.34,1.32,1.01L619.58,530.25z"/>
		<path class="st1" d="M683.56,549.16c-0.62,0.72-1.34,1.35-2.15,1.88c-0.81,0.53-1.67,0.95-2.59,1.28s-1.86,0.57-2.84,0.72
			c-0.98,0.16-1.94,0.23-2.89,0.23c-1.81,0-3.49-0.31-5.04-0.92c-1.55-0.61-2.88-1.51-4.01-2.69s-2.01-2.65-2.64-4.4
			s-0.94-3.77-0.94-6.05c0-1.83,0.28-3.54,0.85-5.12c0.57-1.58,1.39-2.96,2.45-4.13c1.06-1.17,2.36-2.1,3.9-2.77
			c1.54-0.67,3.26-1.01,5.18-1.01c1.61,0,3.09,0.26,4.44,0.79c1.35,0.53,2.52,1.29,3.51,2.29s1.76,2.24,2.32,3.7
			c0.56,1.47,0.84,3.14,0.84,5.03c0,0.78-0.09,1.3-0.26,1.57c-0.17,0.27-0.49,0.4-0.96,0.4h-17.25c0.05,1.57,0.28,2.94,0.67,4.11
			c0.4,1.17,0.95,2.14,1.65,2.91c0.7,0.78,1.53,1.36,2.5,1.74c0.97,0.38,2.05,0.57,3.24,0.57c1.12,0,2.09-0.13,2.91-0.39
			c0.82-0.26,1.53-0.54,2.12-0.84c0.6-0.3,1.1-0.58,1.5-0.84c0.4-0.26,0.76-0.39,1.07-0.39c0.41,0,0.73,0.16,0.96,0.47
			L683.56,549.16z M679.39,536.83c0-1-0.14-1.92-0.43-2.77c-0.28-0.85-0.7-1.58-1.26-2.2c-0.55-0.62-1.23-1.1-2.02-1.45
			c-0.79-0.34-1.71-0.52-2.75-0.52c-2.12,0-3.79,0.61-5.01,1.84c-1.22,1.23-1.99,2.93-2.32,5.1H679.39z"/>
		<path class="st1" d="M712.29,531.65c0.85-1.73,1.87-3.08,3.06-4.07s2.62-1.48,4.3-1.48c0.57,0,1.11,0.07,1.62,0.2
			c0.51,0.13,0.95,0.32,1.33,0.58l-0.34,3.81c-0.12,0.47-0.41,0.7-0.86,0.7c-0.24,0-0.6-0.05-1.09-0.14c-0.48-0.09-1-0.14-1.55-0.14
			c-0.81,0-1.53,0.12-2.15,0.35s-1.18,0.58-1.67,1.04s-0.93,1.02-1.31,1.68c-0.38,0.66-0.73,1.42-1.06,2.27v16.48h-5.05V526.6h2.9
			c0.55,0,0.93,0.1,1.13,0.3c0.2,0.2,0.34,0.55,0.43,1.05L712.29,531.65z"/>
		<path class="st1" d="M823.78,515.72l-11.61,37.2h-4.97l-9.07-27.59c-0.21-0.55-0.39-1.22-0.54-1.99
			c-0.19,0.79-0.37,1.46-0.55,1.99l-9.17,27.59h-4.95l-11.61-37.2h4.61c0.48,0,0.89,0.12,1.22,0.35c0.33,0.23,0.55,0.55,0.65,0.94
			l7.33,24.89c0.14,0.48,0.26,1.01,0.38,1.58c0.11,0.57,0.23,1.17,0.35,1.79c0.12-0.62,0.25-1.22,0.38-1.79
			c0.13-0.57,0.28-1.1,0.45-1.58l8.39-24.89c0.1-0.34,0.32-0.65,0.66-0.91c0.34-0.26,0.74-0.39,1.2-0.39h1.58
			c0.48,0,0.88,0.12,1.19,0.36c0.31,0.24,0.54,0.55,0.67,0.93l8.37,24.89c0.31,0.95,0.59,2.03,0.83,3.24
			c0.21-1.19,0.43-2.27,0.67-3.24l7.36-24.89c0.08-0.34,0.3-0.65,0.65-0.91c0.35-0.26,0.75-0.39,1.22-0.39H823.78z"/>
		<path class="st1" d="M854.4,526.18c1.93,0,3.68,0.31,5.25,0.94c1.56,0.63,2.89,1.54,3.99,2.72c1.1,1.18,1.94,2.61,2.52,4.27
			c0.59,1.67,0.88,3.53,0.88,5.61s-0.29,3.95-0.88,5.62c-0.59,1.68-1.43,3.1-2.52,4.27c-1.1,1.18-2.43,2.08-3.99,2.71
			c-1.56,0.63-3.31,0.94-5.25,0.94c-1.95,0-3.71-0.32-5.27-0.94c-1.56-0.63-2.9-1.53-4-2.71c-1.1-1.17-1.96-2.6-2.55-4.27
			c-0.6-1.67-0.89-3.55-0.89-5.62s0.3-3.94,0.89-5.61c0.6-1.67,1.45-3.09,2.55-4.27c1.1-1.18,2.44-2.09,4-2.72
			C850.69,526.5,852.45,526.18,854.4,526.18z M854.4,549.34c2.49,0,4.34-0.84,5.57-2.51c1.23-1.67,1.84-4.03,1.84-7.07
			c0-3.04-0.61-5.4-1.84-7.08c-1.23-1.68-3.08-2.52-5.57-2.52c-2.52,0-4.4,0.84-5.63,2.52c-1.24,1.68-1.85,4.05-1.85,7.08
			c0,3.04,0.62,5.4,1.85,7.07C850,548.5,851.88,549.34,854.4,549.34z"/>
		<path class="st1" d="M895.56,531.65c0.85-1.73,1.86-3.08,3.06-4.07c1.19-0.98,2.62-1.48,4.3-1.48c0.57,0,1.11,0.07,1.62,0.2
			c0.51,0.13,0.95,0.32,1.34,0.58l-0.34,3.81c-0.12,0.47-0.4,0.7-0.85,0.7c-0.24,0-0.61-0.05-1.09-0.14s-1-0.14-1.55-0.14
			c-0.81,0-1.53,0.12-2.15,0.35c-0.62,0.23-1.18,0.58-1.67,1.04c-0.49,0.46-0.93,1.02-1.31,1.68c-0.38,0.66-0.73,1.42-1.06,2.27
			v16.48h-5.05V526.6h2.9c0.55,0,0.93,0.1,1.13,0.3c0.2,0.2,0.34,0.55,0.43,1.05L895.56,531.65z"/>
		<path class="st1" d="M933.09,514.68v38.23h-5.08v-38.23H933.09z"/>
		<path class="st1" d="M980.47,514.68v38.23h-3.06c-0.71,0-1.15-0.34-1.32-1.01l-0.44-3.03c-1.12,1.33-2.4,2.4-3.82,3.2
			c-1.42,0.8-3.07,1.2-4.93,1.2c-1.5,0-2.86-0.29-4.08-0.88c-1.22-0.59-2.26-1.45-3.12-2.58c-0.86-1.13-1.53-2.53-1.99-4.21
			c-0.47-1.67-0.7-3.6-0.7-5.78c0-1.95,0.26-3.77,0.78-5.44c0.52-1.68,1.27-3.13,2.25-4.35c0.98-1.23,2.18-2.19,3.57-2.89
			c1.4-0.7,2.98-1.05,4.74-1.05c1.59,0,2.94,0.26,4.05,0.78c1.11,0.52,2.11,1.25,2.99,2.2v-14.4H980.47z M975.39,532.97
			c-0.83-1.09-1.72-1.85-2.68-2.28c-0.96-0.43-2.03-0.65-3.22-0.65c-2.31,0-4.11,0.83-5.37,2.5c-1.27,1.67-1.9,4.1-1.9,7.29
			c0,1.67,0.14,3.1,0.43,4.29c0.29,1.18,0.7,2.15,1.24,2.9c0.54,0.75,1.21,1.3,2.01,1.66c0.79,0.35,1.69,0.53,2.69,0.53
			c1.47,0,2.74-0.33,3.81-0.98c1.07-0.66,2.07-1.58,3-2.77V532.97z"/>
	</g>
</g>
</svg>
